<svg version="1.2" xmlns="http://www.w3.org/2000/svg" viewBox="0 0 632 200" width="632" height="200"><style>.a{fill:#fff}</style><path class="a" d="m115.2 129.9q-1.1 0-1.9-0.6-0.8-0.6-1-1.8-0.7-4.6-1.2-9.1-0.3-4.6-0.3-9 0-7.1 1.1-13.9 1.2-6.8 3.6-13 2.9-7.6 7.7-13.2 4.8-5.6 11-8.8 6.2-3.2 13.4-3.2 7.3 0 13.7 3.4 6.3 3.4 11.1 9.1 4.9 5.7 7.6 12.9 2.5 6.1 3.6 13.2 1.2 7 1.2 14.4 0 4.3-0.4 8.7-0.3 4.2-1 8.4-0.1 1.4-1 1.9-0.9 0.6-1.8 0.6-1.2 0-2.3-0.9-0.9-0.9-0.6-2.4 0.5-3.6 0.7-7.3 0.3-3.9 0.3-7.6 0-7.4-1.1-14.4-1.2-7.1-3.7-13-2.4-5.9-6.4-10.6-4-4.7-9.2-7.4-5.1-2.8-11.1-2.8-5.7 0-10.5 2.6-4.8 2.5-8.6 6.9-3.6 4.4-6.2 10.1-2.5 5.5-3.7 11.7h52.5q1.5 0 2.2 0.9 0.6 0.9 0.6 2 0 1-0.7 2-0.8 0.8-2.1 0.8h-53.5q-0.2 1.8-0.4 3.9-0.1 2.1-0.1 4.5 0 4.6 0.4 9.4 0.4 4.8 0.9 8.3 0.2 1.6-0.8 2.4-1 0.9-2 0.9zm87.6 11.1q-0.9 0-1.8-0.6-0.9-0.7-0.9-1.9-0.7-11.1-1.3-21.1-0.6-10-0.6-19.2 0-5.9 0.3-11.5 0.3-5.7 1-10.9 0.2-1.6 1.1-2.1 1.1-0.6 2-0.4 1.3 0.1 2 0.9 0.7 0.9 0.5 2.2-0.5 4.5-0.8 11.7-0.3 7.2-0.3 14.5 0 5.2 0.1 9.9 0.2 4.7 0.5 7.9 4.7 1.5 9.3 2.5 4.6 1 9 1 7.2 0 12.9-2.7 5.9-2.8 9.3-7.9 3.3-5.2 3.3-12.3 0-6.8-3-11.9-3.1-5.1-8.4-7.9-5.2-2.8-11.7-2.8-3.9 0-7.8 1-3.9 1-7.4 2.6-0.7 0.4-1.5 0.4-1.6 0-2.3-1.5-0.4-0.7-0.4-1.5 0-1.4 1.5-2.5 3.7-2 8.5-3 4.8-1 9.7-1 8.5 0 15 3.7 6.6 3.7 10.2 10 3.8 6.4 3.8 14.4 0 8.8-4.4 15.3-4.5 6.4-12 9.9-7.5 3.4-16.8 3.4-8.5 0-16.4-3l0.8 11.4q0.2 1.6-0.9 2.4-1 0.6-2.1 0.6zm92.1-11.1q-8-1.4-13.3-6.9-5.2-5.5-7-13.6-0.4-2.3-0.7-4.7-0.2-2.5-0.2-5 0-4.2 0.5-8.3 0.5-4.2 1.3-8h-11.3q-1.6 0-2.2-0.9-0.7-1-0.7-2 0-1.3 0.8-2 0.8-0.9 2.1-0.9h12.7q0.4-1.5 1.3-4.3 0.8-2.8 1.8-5.6 1-2.8 1.5-4.3 0.8-1.7 2.6-1.7 1.5 0 2.2 0.8 0.9 0.9 0.9 1.9 0 0.6-0.3 1.2-0.6 1.6-1.4 3.9-0.8 2.3-1.6 4.5-0.6 2.2-1 3.6h26.5q1.5 0 2.2 1 0.7 0.9 0.7 1.9 0 1-0.8 2-0.7 0.9-2.1 0.9h-28q-0.8 3.8-1.4 8.1-0.5 4.3-0.5 8.3 0 1.7 0.1 3.3 0.1 1.7 0.4 3.1 1.4 7.2 5.4 12.2 4 4.9 11.1 6 1 0.1 2 0.2 1.1 0 2.1 0 2.9 0 5.9-0.4 3-0.3 5.1-1.2 0.4-0.1 0.7-0.1 0.3-0.1 0.5-0.1 2.6 0 2.6 3.2 0 1.5-2 2.5-5.6 2-12.5 2-3.2 0-6-0.6zm85.1-0.4q-0.7 0-1.5-0.4-0.8-0.4-1.1-1.4-1.6-3.5-2.4-7.8-0.9-4.2-1.4-8-2.1 4.8-5.7 8.7-3.5 3.8-8 6.1-4.5 2.3-9.7 2.6-9.8 0.5-16-3-6.2-3.7-9.2-10.2-2.8-6.6-2.8-14.9 0-5.9 1.3-12.3 1.3-6.4 3.8-12.8 0.7-1.9 2.6-1.9 1.4 0 2.2 0.8 0.9 0.8 0.9 1.9 0 0.5-0.3 1.3-2.4 6.1-3.7 12.1-1.3 5.9-1.3 11.3 0 6.4 2.1 11.5 2.1 5.1 6.7 8 4.5 2.8 11.7 2.5 7.1-0.3 12.5-4.7 5.6-4.4 8.8-12.1 3.1-7.8 3.1-17.7 0-1.7-0.1-3.5-0.1-1.9-0.3-3.7-0.2-1.6 0.7-2.2 1.1-0.6 2.1-0.6 1.4 0.1 2.3 1 0.9 0.8 0.9 2.1 0 3.8 0.2 8.7 0.3 4.9 0.7 10.2 0.5 5.3 1 10.2 0.6 4.9 1.4 8.7 0.7 3.8 1.7 5.7 0.2 0.3 0.2 0.6 0 0.3 0 0.5 0 1.3-1.1 2.1-1 0.6-2.3 0.6zm24.9 0q-1.2 0-2.1-0.7-0.8-0.9-0.8-2.2-0.3-5.2-0.9-11.4-0.6-6.1-1.6-12.5-0.8-6.4-2-12.1-1.1-5.9-2.4-10.4-0.2-0.8-0.2-1.1 0-1.2 0.9-1.9 0.9-0.7 2-0.7 1 0 1.7 0.6 0.9 0.5 1.2 1.5 1 3.3 2 7.9 1 4.6 1.7 9.3 0.8 4.6 1.2 8.2 1.8-7.6 6.1-13.1 4.4-5.5 10.7-8.5 6.3-3 13.7-3 6.1 0 12.2 2.2 1.9 0.9 1.9 2.6 0 2.9-2.8 2.9-0.6 0-1-0.1-4.6-1.5-10.1-1.5-7.9 0-13.3 3.1-5.3 3.2-8.7 8.9-3.3 5.6-4.8 13-1.5 7.4-1.7 16 0 1.5-1 2.3-0.8 0.7-1.9 0.7zm84.9 1.3q-0.8 0.1-1.7 0.1-0.7 0-1.5 0-8.5 0-15.3-3.6-6.7-3.6-10.5-10-3.9-6.3-3.9-14.5 0-7.6 3-14.1 3.1-6.5 8.7-10.8 5.5-4.3 13.1-5.5 1.1-0.2 2.3-0.3 1.3-0.1 2.5-0.1 5.2 0 10.8 1.5 5.6 1.3 9.5 3.8 0.4-1.1 1.5-1.2 1.1-0.3 1.7-0.1 1.1 0.1 1.7 0.9 0.5 0.9 0.5 2-0.1 2.2-0.2 4.4 0 2.1 0 4.2 0 10.7 1.6 19.1 1.6 8.3 6 14.6 0.6 0.8 0.6 1.7 0 1.2-1 1.9-0.8 0.8-1.9 0.8-1.4 0-2.4-1.3-0.9-1.3-1.9-2.9-0.9-1.7-1.4-2.9-4 5.5-9.6 8.5-5.7 3-12.2 3.8zm-2-5.6q6.6 0 12-3.6 5.6-3.7 9.1-10-1.5-5.4-2.1-12.5-0.7-7.1-0.6-14.8-1.9-2.1-5.1-3.5-3.2-1.5-6.9-2.2-3.8-0.8-7.4-0.8-2.4 0-4.5 0.3-2.1 0.3-4 1-7.3 2.7-11.6 9.1-4.2 6.2-4.2 14.3 0 7.1 3.4 12.1 3.4 5.1 9.2 7.9 5.7 2.7 12.7 2.7z"/></svg>